<?xml version="1.0" encoding="utf-8" standalone="no"?>
<!DOCTYPE svg PUBLIC "-//W3C//DTD SVG 1.1//EN"
  "http://www.w3.org/Graphics/SVG/1.1/DTD/svg11.dtd">
<svg xmlns:xlink="http://www.w3.org/1999/xlink" width="432pt" height="432pt" viewBox="0 0 432 432" xmlns="http://www.w3.org/2000/svg" version="1.1">
 <metadata>
  <rdf:RDF xmlns:dc="http://purl.org/dc/elements/1.1/" xmlns:cc="http://creativecommons.org/ns#" xmlns:rdf="http://www.w3.org/1999/02/22-rdf-syntax-ns#">
   <cc:Work>
    <dc:type rdf:resource="http://purl.org/dc/dcmitype/StillImage"/>
    <dc:date>2021-11-28T15:12:20.468451</dc:date>
    <dc:format>image/svg+xml</dc:format>
    <dc:creator>
     <cc:Agent>
      <dc:title>Matplotlib v3.5.0, https://matplotlib.org/</dc:title>
     </cc:Agent>
    </dc:creator>
   </cc:Work>
  </rdf:RDF>
 </metadata>
 <defs>
  <style type="text/css">*{stroke-linejoin: round; stroke-linecap: butt}</style>
 </defs>
 <g id="figure_1">
  <g id="patch_1">
   <path d="M 0 432 
L 432 432 
L 432 0 
L 0 0 
L 0 432 
z
" style="fill: none"/>
  </g>
  <g id="axes_1">
   <g id="patch_2">
    <path d="M 54 378 
L 388.8 378 
L 388.8 51.84 
L 54 51.84 
z
" style="fill: #ffffff"/>
   </g>
   <g id="patch_3">
    <path d="M 256.433472 183.958528 
L 263.129472 211.716826 
L 256.656672 211.716826 
L 256.656672 343.302128 
L 256.210272 343.302128 
L 256.210272 211.716826 
L 249.737472 211.716826 
L 256.433472 183.958528 
z
" clip-path="url(#pe8c2e61675)" style="fill: none; stroke: #1f77b4; stroke-width: 3; stroke-linejoin: miter"/>
   </g>
   <g id="patch_4">
    <path d="M 254.926334 172.234425 
Q 186.040241 106.348701 151.613683 180.797449 
L 156.968847 183.273781 
Q 150.49292 190.106973 144.184479 199.360979 
Q 144.775791 188.22231 146.076989 178.237173 
L 151.432152 180.713505 
Q 185.976194 106.010693 255.064573 172.089891 
L 254.926334 172.234425 
L 254.926334 172.234425 
z
" clip-path="url(#pe8c2e61675)" style="fill: none; stroke: #ff7f0e; stroke-width: 4; stroke-linecap: round"/>
   </g>
   <g id="PathCollection_1">
    <path d="M 256.433472 186.373097 
C 258.91422 186.373097 261.293697 185.387486 263.04785 183.633332 
C 264.802004 181.879178 265.787615 179.499702 265.787615 177.018954 
C 265.787615 174.538206 264.802004 172.158729 263.04785 170.404576 
C 261.293697 168.650422 258.91422 167.66481 256.433472 167.66481 
C 253.952724 167.66481 251.573247 168.650422 249.819094 170.404576 
C 248.06494 172.158729 247.079329 174.538206 247.079329 177.018954 
C 247.079329 179.499702 248.06494 181.879178 249.819094 183.633332 
C 251.573247 185.387486 253.952724 186.373097 256.433472 186.373097 
L 256.433472 186.373097 
z
" clip-path="url(#pe8c2e61675)" style="fill: none; stroke: #1f77b4; stroke-width: 3"/>
   </g>
   <g id="PathCollection_2">
    <path d="M 143.551667 213.387585 
C 145.848393 213.387585 148.05136 212.475086 149.675391 210.851056 
C 151.299422 209.227025 152.211921 207.024058 152.211921 204.727331 
C 152.211921 202.430605 151.299422 200.227638 149.675391 198.603607 
C 148.05136 196.979576 145.848393 196.067077 143.551667 196.067077 
C 141.25494 196.067077 139.051973 196.979576 137.427942 198.603607 
C 135.803912 200.227638 134.891413 202.430605 134.891413 204.727331 
C 134.891413 207.024058 135.803912 209.227025 137.427942 210.851056 
C 139.051973 212.475086 141.25494 213.387585 143.551667 213.387585 
L 143.551667 213.387585 
z
" clip-path="url(#pe8c2e61675)" style="fill: none; stroke: #ff7f0e; stroke-width: 3"/>
   </g>
   <g id="matplotlib.axis_1">
    <g id="text_1">
     <!-- Bond length -->
     <g transform="translate(136.39375 409.275625)scale(0.28 -0.28)">
      <defs>
       <path id="DejaVuSans-42" d="M 1259 2228 
L 1259 519 
L 2272 519 
Q 2781 519 3026 730 
Q 3272 941 3272 1375 
Q 3272 1813 3026 2020 
Q 2781 2228 2272 2228 
L 1259 2228 
z
M 1259 4147 
L 1259 2741 
L 2194 2741 
Q 2656 2741 2882 2914 
Q 3109 3088 3109 3444 
Q 3109 3797 2882 3972 
Q 2656 4147 2194 4147 
L 1259 4147 
z
M 628 4666 
L 2241 4666 
Q 2963 4666 3353 4366 
Q 3744 4066 3744 3513 
Q 3744 3084 3544 2831 
Q 3344 2578 2956 2516 
Q 3422 2416 3680 2098 
Q 3938 1781 3938 1306 
Q 3938 681 3513 340 
Q 3088 0 2303 0 
L 628 0 
L 628 4666 
z
" transform="scale(0.015625)"/>
       <path id="DejaVuSans-6f" d="M 1959 3097 
Q 1497 3097 1228 2736 
Q 959 2375 959 1747 
Q 959 1119 1226 758 
Q 1494 397 1959 397 
Q 2419 397 2687 759 
Q 2956 1122 2956 1747 
Q 2956 2369 2687 2733 
Q 2419 3097 1959 3097 
z
M 1959 3584 
Q 2709 3584 3137 3096 
Q 3566 2609 3566 1747 
Q 3566 888 3137 398 
Q 2709 -91 1959 -91 
Q 1206 -91 779 398 
Q 353 888 353 1747 
Q 353 2609 779 3096 
Q 1206 3584 1959 3584 
z
" transform="scale(0.015625)"/>
       <path id="DejaVuSans-6e" d="M 3513 2113 
L 3513 0 
L 2938 0 
L 2938 2094 
Q 2938 2591 2744 2837 
Q 2550 3084 2163 3084 
Q 1697 3084 1428 2787 
Q 1159 2491 1159 1978 
L 1159 0 
L 581 0 
L 581 3500 
L 1159 3500 
L 1159 2956 
Q 1366 3272 1645 3428 
Q 1925 3584 2291 3584 
Q 2894 3584 3203 3211 
Q 3513 2838 3513 2113 
z
" transform="scale(0.015625)"/>
       <path id="DejaVuSans-64" d="M 2906 2969 
L 2906 4863 
L 3481 4863 
L 3481 0 
L 2906 0 
L 2906 525 
Q 2725 213 2448 61 
Q 2172 -91 1784 -91 
Q 1150 -91 751 415 
Q 353 922 353 1747 
Q 353 2572 751 3078 
Q 1150 3584 1784 3584 
Q 2172 3584 2448 3432 
Q 2725 3281 2906 2969 
z
M 947 1747 
Q 947 1113 1208 752 
Q 1469 391 1925 391 
Q 2381 391 2643 752 
Q 2906 1113 2906 1747 
Q 2906 2381 2643 2742 
Q 2381 3103 1925 3103 
Q 1469 3103 1208 2742 
Q 947 2381 947 1747 
z
" transform="scale(0.015625)"/>
       <path id="DejaVuSans-20" transform="scale(0.015625)"/>
       <path id="DejaVuSans-6c" d="M 603 4863 
L 1178 4863 
L 1178 0 
L 603 0 
L 603 4863 
z
" transform="scale(0.015625)"/>
       <path id="DejaVuSans-65" d="M 3597 1894 
L 3597 1613 
L 953 1613 
Q 991 1019 1311 708 
Q 1631 397 2203 397 
Q 2534 397 2845 478 
Q 3156 559 3463 722 
L 3463 178 
Q 3153 47 2828 -22 
Q 2503 -91 2169 -91 
Q 1331 -91 842 396 
Q 353 884 353 1716 
Q 353 2575 817 3079 
Q 1281 3584 2069 3584 
Q 2775 3584 3186 3129 
Q 3597 2675 3597 1894 
z
M 3022 2063 
Q 3016 2534 2758 2815 
Q 2500 3097 2075 3097 
Q 1594 3097 1305 2825 
Q 1016 2553 972 2059 
L 3022 2063 
z
" transform="scale(0.015625)"/>
       <path id="DejaVuSans-67" d="M 2906 1791 
Q 2906 2416 2648 2759 
Q 2391 3103 1925 3103 
Q 1463 3103 1205 2759 
Q 947 2416 947 1791 
Q 947 1169 1205 825 
Q 1463 481 1925 481 
Q 2391 481 2648 825 
Q 2906 1169 2906 1791 
z
M 3481 434 
Q 3481 -459 3084 -895 
Q 2688 -1331 1869 -1331 
Q 1566 -1331 1297 -1286 
Q 1028 -1241 775 -1147 
L 775 -588 
Q 1028 -725 1275 -790 
Q 1522 -856 1778 -856 
Q 2344 -856 2625 -561 
Q 2906 -266 2906 331 
L 2906 616 
Q 2728 306 2450 153 
Q 2172 0 1784 0 
Q 1141 0 747 490 
Q 353 981 353 1791 
Q 353 2603 747 3093 
Q 1141 3584 1784 3584 
Q 2172 3584 2450 3431 
Q 2728 3278 2906 2969 
L 2906 3500 
L 3481 3500 
L 3481 434 
z
" transform="scale(0.015625)"/>
       <path id="DejaVuSans-74" d="M 1172 4494 
L 1172 3500 
L 2356 3500 
L 2356 3053 
L 1172 3053 
L 1172 1153 
Q 1172 725 1289 603 
Q 1406 481 1766 481 
L 2356 481 
L 2356 0 
L 1766 0 
Q 1100 0 847 248 
Q 594 497 594 1153 
L 594 3053 
L 172 3053 
L 172 3500 
L 594 3500 
L 594 4494 
L 1172 4494 
z
" transform="scale(0.015625)"/>
       <path id="DejaVuSans-68" d="M 3513 2113 
L 3513 0 
L 2938 0 
L 2938 2094 
Q 2938 2591 2744 2837 
Q 2550 3084 2163 3084 
Q 1697 3084 1428 2787 
Q 1159 2491 1159 1978 
L 1159 0 
L 581 0 
L 581 4863 
L 1159 4863 
L 1159 2956 
Q 1366 3272 1645 3428 
Q 1925 3584 2291 3584 
Q 2894 3584 3203 3211 
Q 3513 2838 3513 2113 
z
" transform="scale(0.015625)"/>
      </defs>
      <use xlink:href="#DejaVuSans-42"/>
      <use xlink:href="#DejaVuSans-6f" x="68.603516"/>
      <use xlink:href="#DejaVuSans-6e" x="129.785156"/>
      <use xlink:href="#DejaVuSans-64" x="193.164062"/>
      <use xlink:href="#DejaVuSans-20" x="256.640625"/>
      <use xlink:href="#DejaVuSans-6c" x="288.427734"/>
      <use xlink:href="#DejaVuSans-65" x="316.210938"/>
      <use xlink:href="#DejaVuSans-6e" x="377.734375"/>
      <use xlink:href="#DejaVuSans-67" x="441.113281"/>
      <use xlink:href="#DejaVuSans-74" x="504.589844"/>
      <use xlink:href="#DejaVuSans-68" x="543.798828"/>
     </g>
    </g>
   </g>
   <g id="matplotlib.axis_2">
    <g id="text_2">
     <!-- Energy -->
     <g transform="translate(38.176875 263.9375)rotate(-90)scale(0.28 -0.28)">
      <defs>
       <path id="DejaVuSans-45" d="M 628 4666 
L 3578 4666 
L 3578 4134 
L 1259 4134 
L 1259 2753 
L 3481 2753 
L 3481 2222 
L 1259 2222 
L 1259 531 
L 3634 531 
L 3634 0 
L 628 0 
L 628 4666 
z
" transform="scale(0.015625)"/>
       <path id="DejaVuSans-72" d="M 2631 2963 
Q 2534 3019 2420 3045 
Q 2306 3072 2169 3072 
Q 1681 3072 1420 2755 
Q 1159 2438 1159 1844 
L 1159 0 
L 581 0 
L 581 3500 
L 1159 3500 
L 1159 2956 
Q 1341 3275 1631 3429 
Q 1922 3584 2338 3584 
Q 2397 3584 2469 3576 
Q 2541 3569 2628 3553 
L 2631 2963 
z
" transform="scale(0.015625)"/>
       <path id="DejaVuSans-79" d="M 2059 -325 
Q 1816 -950 1584 -1140 
Q 1353 -1331 966 -1331 
L 506 -1331 
L 506 -850 
L 844 -850 
Q 1081 -850 1212 -737 
Q 1344 -625 1503 -206 
L 1606 56 
L 191 3500 
L 800 3500 
L 1894 763 
L 2988 3500 
L 3597 3500 
L 2059 -325 
z
" transform="scale(0.015625)"/>
      </defs>
      <use xlink:href="#DejaVuSans-45"/>
      <use xlink:href="#DejaVuSans-6e" x="63.183594"/>
      <use xlink:href="#DejaVuSans-65" x="126.5625"/>
      <use xlink:href="#DejaVuSans-72" x="188.085938"/>
      <use xlink:href="#DejaVuSans-67" x="227.449219"/>
      <use xlink:href="#DejaVuSans-79" x="290.925781"/>
     </g>
    </g>
   </g>
   <g id="line2d_1">
    <path d="M -1 194.09889 
L 13.824 217.339807 
L 30.192 239.532059 
L 46.56 258.645364 
L 62.928 275.026855 
L 79.296 288.985297 
L 95.664 300.795406 
L 112.032 310.701657 
L 128.4 318.921652 
L 144.768 325.649105 
L 161.136 331.056487 
L 177.504 335.29738 
L 193.872 338.508564 
L 210.24 340.811874 
L 226.608 342.315851 
L 242.976 343.117209 
L 259.344 343.302128 
L 275.712 342.94741 
L 292.08 342.1215 
L 308.448 340.885384 
L 324.816 339.293392 
L 341.184 337.393906 
L 357.552 335.229994 
L 373.92 332.83996 
L 390.288 330.257855 
L 406.656 327.513911 
L 423.024 324.634945 
L 433 322.812453 
" clip-path="url(#pe8c2e61675)" style="fill: none; stroke: #d62728; stroke-width: 4; stroke-linecap: square"/>
   </g>
   <g id="line2d_2">
    <path d="M -1 104.990412 
L 13.824 128.320085 
L 30.192 149.367313 
L 46.56 166.256309 
L 62.928 179.483689 
L 79.296 189.494229 
L 95.664 196.685997 
L 112.032 201.414982 
L 128.4 203.999279 
L 144.768 204.722867 
L 161.136 203.839025 
L 177.504 201.573412 
L 193.872 198.126852 
L 210.24 193.677845 
L 226.608 188.384831 
L 242.976 182.388243 
L 259.344 175.812344 
L 275.712 168.766896 
L 292.08 161.348662 
L 308.448 153.642755 
L 324.816 145.723859 
L 341.184 137.65733 
L 357.552 129.500181 
L 373.92 121.301977 
L 390.288 113.105634 
L 406.656 104.948144 
L 423.024 96.861219 
L 433 91.991861 
" clip-path="url(#pe8c2e61675)" style="fill: none; stroke-dasharray: 4,6.6; stroke-dashoffset: 0; stroke: #000000; stroke-width: 4"/>
   </g>
   <g id="PathCollection_3">
    <defs>
     <path id="me8e29f1d91" d="M 0 3.535534 
C 0.937635 3.535534 1.836992 3.163008 2.5 2.5 
C 3.163008 1.836992 3.535534 0.937635 3.535534 0 
C 3.535534 -0.937635 3.163008 -1.836992 2.5 -2.5 
C 1.836992 -3.163008 0.937635 -3.535534 0 -3.535534 
C -0.937635 -3.535534 -1.836992 -3.163008 -2.5 -2.5 
C -3.163008 -1.836992 -3.535534 -0.937635 -3.535534 0 
C -3.535534 0.937635 -3.163008 1.836992 -2.5 2.5 
C -1.836992 3.163008 -0.937635 3.535534 0 3.535534 
z
" style="stroke: #1f77b4"/>
    </defs>
    <g clip-path="url(#pe8c2e61675)">
     <use xlink:href="#me8e29f1d91" x="256.120992" y="177.018954" style="fill: #1f77b4; stroke: #1f77b4"/>
    </g>
   </g>
   <g id="PathCollection_4">
    <defs>
     <path id="md6c22846f8" d="M 0 3.162278 
C 0.838646 3.162278 1.643056 2.82908 2.236068 2.236068 
C 2.82908 1.643056 3.162278 0.838646 3.162278 0 
C 3.162278 -0.838646 2.82908 -1.643056 2.236068 -2.236068 
C 1.643056 -2.82908 0.838646 -3.162278 0 -3.162278 
C -0.838646 -3.162278 -1.643056 -2.82908 -2.236068 -2.236068 
C -2.82908 -1.643056 -3.162278 -0.838646 -3.162278 0 
C -3.162278 0.838646 -2.82908 1.643056 -2.236068 2.236068 
C -1.643056 2.82908 -0.838646 3.162278 0 3.162278 
z
" style="stroke: #ff7f0e"/>
    </defs>
    <g clip-path="url(#pe8c2e61675)">
     <use xlink:href="#md6c22846f8" x="143.551667" y="204.727331" style="fill: #ff7f0e; stroke: #ff7f0e"/>
    </g>
   </g>
   <g id="patch_5">
    <path d="M 54 378 
L 54 51.84 
" style="fill: none; stroke: #000000; stroke-width: 0.8; stroke-linejoin: miter; stroke-linecap: square"/>
   </g>
   <g id="patch_6">
    <path d="M 388.8 378 
L 388.8 51.84 
" style="fill: none; stroke: #000000; stroke-width: 0.8; stroke-linejoin: miter; stroke-linecap: square"/>
   </g>
   <g id="patch_7">
    <path d="M 54 378 
L 388.8 378 
" style="fill: none; stroke: #000000; stroke-width: 0.8; stroke-linejoin: miter; stroke-linecap: square"/>
   </g>
   <g id="patch_8">
    <path d="M 54 51.84 
L 388.8 51.84 
" style="fill: none; stroke: #000000; stroke-width: 0.8; stroke-linejoin: miter; stroke-linecap: square"/>
   </g>
   <g id="text_3">
    <!-- Target -->
    <g transform="translate(62.928 70.576851)scale(0.2 -0.2)">
     <defs>
      <path id="DejaVuSans-Bold-54" d="M 31 4666 
L 4331 4666 
L 4331 3756 
L 2784 3756 
L 2784 0 
L 1581 0 
L 1581 3756 
L 31 3756 
L 31 4666 
z
" transform="scale(0.015625)"/>
      <path id="DejaVuSans-Bold-61" d="M 2106 1575 
Q 1756 1575 1579 1456 
Q 1403 1338 1403 1106 
Q 1403 894 1545 773 
Q 1688 653 1941 653 
Q 2256 653 2472 879 
Q 2688 1106 2688 1447 
L 2688 1575 
L 2106 1575 
z
M 3816 1997 
L 3816 0 
L 2688 0 
L 2688 519 
Q 2463 200 2181 54 
Q 1900 -91 1497 -91 
Q 953 -91 614 226 
Q 275 544 275 1050 
Q 275 1666 698 1953 
Q 1122 2241 2028 2241 
L 2688 2241 
L 2688 2328 
Q 2688 2594 2478 2717 
Q 2269 2841 1825 2841 
Q 1466 2841 1156 2769 
Q 847 2697 581 2553 
L 581 3406 
Q 941 3494 1303 3539 
Q 1666 3584 2028 3584 
Q 2975 3584 3395 3211 
Q 3816 2838 3816 1997 
z
" transform="scale(0.015625)"/>
      <path id="DejaVuSans-Bold-72" d="M 3138 2547 
Q 2991 2616 2845 2648 
Q 2700 2681 2553 2681 
Q 2122 2681 1889 2404 
Q 1656 2128 1656 1613 
L 1656 0 
L 538 0 
L 538 3500 
L 1656 3500 
L 1656 2925 
Q 1872 3269 2151 3426 
Q 2431 3584 2822 3584 
Q 2878 3584 2943 3579 
Q 3009 3575 3134 3559 
L 3138 2547 
z
" transform="scale(0.015625)"/>
      <path id="DejaVuSans-Bold-67" d="M 2919 594 
Q 2688 288 2409 144 
Q 2131 0 1766 0 
Q 1125 0 706 504 
Q 288 1009 288 1791 
Q 288 2575 706 3076 
Q 1125 3578 1766 3578 
Q 2131 3578 2409 3434 
Q 2688 3291 2919 2981 
L 2919 3500 
L 4044 3500 
L 4044 353 
Q 4044 -491 3511 -936 
Q 2978 -1381 1966 -1381 
Q 1638 -1381 1331 -1331 
Q 1025 -1281 716 -1178 
L 716 -306 
Q 1009 -475 1290 -558 
Q 1572 -641 1856 -641 
Q 2406 -641 2662 -400 
Q 2919 -159 2919 353 
L 2919 594 
z
M 2181 2772 
Q 1834 2772 1640 2515 
Q 1447 2259 1447 1791 
Q 1447 1309 1634 1061 
Q 1822 813 2181 813 
Q 2531 813 2725 1069 
Q 2919 1325 2919 1791 
Q 2919 2259 2725 2515 
Q 2531 2772 2181 2772 
z
" transform="scale(0.015625)"/>
      <path id="DejaVuSans-Bold-65" d="M 4031 1759 
L 4031 1441 
L 1416 1441 
Q 1456 1047 1700 850 
Q 1944 653 2381 653 
Q 2734 653 3104 758 
Q 3475 863 3866 1075 
L 3866 213 
Q 3469 63 3072 -14 
Q 2675 -91 2278 -91 
Q 1328 -91 801 392 
Q 275 875 275 1747 
Q 275 2603 792 3093 
Q 1309 3584 2216 3584 
Q 3041 3584 3536 3087 
Q 4031 2591 4031 1759 
z
M 2881 2131 
Q 2881 2450 2695 2645 
Q 2509 2841 2209 2841 
Q 1884 2841 1681 2658 
Q 1478 2475 1428 2131 
L 2881 2131 
z
" transform="scale(0.015625)"/>
      <path id="DejaVuSans-Bold-74" d="M 1759 4494 
L 1759 3500 
L 2913 3500 
L 2913 2700 
L 1759 2700 
L 1759 1216 
Q 1759 972 1856 886 
Q 1953 800 2241 800 
L 2816 800 
L 2816 0 
L 1856 0 
Q 1194 0 917 276 
Q 641 553 641 1216 
L 641 2700 
L 84 2700 
L 84 3500 
L 641 3500 
L 641 4494 
L 1759 4494 
z
" transform="scale(0.015625)"/>
     </defs>
     <use xlink:href="#DejaVuSans-Bold-54"/>
     <use xlink:href="#DejaVuSans-Bold-61" x="55.337891"/>
     <use xlink:href="#DejaVuSans-Bold-72" x="122.818359"/>
     <use xlink:href="#DejaVuSans-Bold-67" x="172.134766"/>
     <use xlink:href="#DejaVuSans-Bold-65" x="243.716797"/>
     <use xlink:href="#DejaVuSans-Bold-74" x="311.539062"/>
    </g>
   </g>
   <g id="text_4">
    <!-- Reference -->
    <g style="fill: #d62728" transform="translate(62.928 371.060426)scale(0.2 -0.2)">
     <defs>
      <path id="DejaVuSans-Bold-52" d="M 2297 2597 
Q 2675 2597 2839 2737 
Q 3003 2878 3003 3200 
Q 3003 3519 2839 3656 
Q 2675 3794 2297 3794 
L 1791 3794 
L 1791 2597 
L 2297 2597 
z
M 1791 1766 
L 1791 0 
L 588 0 
L 588 4666 
L 2425 4666 
Q 3347 4666 3776 4356 
Q 4206 4047 4206 3378 
Q 4206 2916 3982 2619 
Q 3759 2322 3309 2181 
Q 3556 2125 3751 1926 
Q 3947 1728 4147 1325 
L 4800 0 
L 3519 0 
L 2950 1159 
Q 2778 1509 2601 1637 
Q 2425 1766 2131 1766 
L 1791 1766 
z
" transform="scale(0.015625)"/>
      <path id="DejaVuSans-Bold-66" d="M 2841 4863 
L 2841 4128 
L 2222 4128 
Q 1984 4128 1890 4042 
Q 1797 3956 1797 3744 
L 1797 3500 
L 2753 3500 
L 2753 2700 
L 1797 2700 
L 1797 0 
L 678 0 
L 678 2700 
L 122 2700 
L 122 3500 
L 678 3500 
L 678 3744 
Q 678 4316 997 4589 
Q 1316 4863 1984 4863 
L 2841 4863 
z
" transform="scale(0.015625)"/>
      <path id="DejaVuSans-Bold-6e" d="M 4056 2131 
L 4056 0 
L 2931 0 
L 2931 347 
L 2931 1631 
Q 2931 2084 2911 2256 
Q 2891 2428 2841 2509 
Q 2775 2619 2662 2680 
Q 2550 2741 2406 2741 
Q 2056 2741 1856 2470 
Q 1656 2200 1656 1722 
L 1656 0 
L 538 0 
L 538 3500 
L 1656 3500 
L 1656 2988 
Q 1909 3294 2193 3439 
Q 2478 3584 2822 3584 
Q 3428 3584 3742 3212 
Q 4056 2841 4056 2131 
z
" transform="scale(0.015625)"/>
      <path id="DejaVuSans-Bold-63" d="M 3366 3391 
L 3366 2478 
Q 3138 2634 2908 2709 
Q 2678 2784 2431 2784 
Q 1963 2784 1702 2511 
Q 1441 2238 1441 1747 
Q 1441 1256 1702 982 
Q 1963 709 2431 709 
Q 2694 709 2930 787 
Q 3166 866 3366 1019 
L 3366 103 
Q 3103 6 2833 -42 
Q 2563 -91 2291 -91 
Q 1344 -91 809 395 
Q 275 881 275 1747 
Q 275 2613 809 3098 
Q 1344 3584 2291 3584 
Q 2566 3584 2833 3536 
Q 3100 3488 3366 3391 
z
" transform="scale(0.015625)"/>
     </defs>
     <use xlink:href="#DejaVuSans-Bold-52"/>
     <use xlink:href="#DejaVuSans-Bold-65" x="77.001953"/>
     <use xlink:href="#DejaVuSans-Bold-66" x="144.824219"/>
     <use xlink:href="#DejaVuSans-Bold-65" x="188.330078"/>
     <use xlink:href="#DejaVuSans-Bold-72" x="256.152344"/>
     <use xlink:href="#DejaVuSans-Bold-65" x="305.46875"/>
     <use xlink:href="#DejaVuSans-Bold-6e" x="373.291016"/>
     <use xlink:href="#DejaVuSans-Bold-63" x="444.482422"/>
     <use xlink:href="#DejaVuSans-Bold-65" x="503.759766"/>
    </g>
   </g>
   <g id="text_5">
    <!-- 1) "Vertical"  -->
    <g style="fill: #1f77b4" transform="translate(268.272 227.303856)scale(0.15 -0.15)">
     <defs>
      <path id="DejaVuSans-Bold-31" d="M 750 831 
L 1813 831 
L 1813 3847 
L 722 3622 
L 722 4441 
L 1806 4666 
L 2950 4666 
L 2950 831 
L 4013 831 
L 4013 0 
L 750 0 
L 750 831 
z
" transform="scale(0.015625)"/>
      <path id="DejaVuSans-Bold-29" d="M 513 -844 
Q 913 -100 1113 609 
Q 1313 1319 1313 2009 
Q 1313 2700 1113 3408 
Q 913 4116 513 4856 
L 1441 4856 
Q 1916 4091 2145 3389 
Q 2375 2688 2375 2003 
Q 2375 1319 2147 623 
Q 1919 -72 1441 -844 
L 513 -844 
z
" transform="scale(0.015625)"/>
      <path id="DejaVuSans-Bold-20" transform="scale(0.015625)"/>
      <path id="DejaVuSans-Bold-22" d="M 2725 4666 
L 2725 2931 
L 1984 2931 
L 1984 4666 
L 2725 4666 
z
M 1350 4666 
L 1350 2931 
L 609 2931 
L 609 4666 
L 1350 4666 
z
" transform="scale(0.015625)"/>
      <path id="DejaVuSans-Bold-56" d="M 31 4666 
L 1241 4666 
L 2478 1222 
L 3713 4666 
L 4922 4666 
L 3194 0 
L 1759 0 
L 31 4666 
z
" transform="scale(0.015625)"/>
      <path id="DejaVuSans-Bold-69" d="M 538 3500 
L 1656 3500 
L 1656 0 
L 538 0 
L 538 3500 
z
M 538 4863 
L 1656 4863 
L 1656 3950 
L 538 3950 
L 538 4863 
z
" transform="scale(0.015625)"/>
      <path id="DejaVuSans-Bold-6c" d="M 538 4863 
L 1656 4863 
L 1656 0 
L 538 0 
L 538 4863 
z
" transform="scale(0.015625)"/>
     </defs>
     <use xlink:href="#DejaVuSans-Bold-31"/>
     <use xlink:href="#DejaVuSans-Bold-29" x="69.580078"/>
     <use xlink:href="#DejaVuSans-Bold-20" x="115.283203"/>
     <use xlink:href="#DejaVuSans-Bold-22" x="150.097656"/>
     <use xlink:href="#DejaVuSans-Bold-56" x="202.197266"/>
     <use xlink:href="#DejaVuSans-Bold-65" x="274.089844"/>
     <use xlink:href="#DejaVuSans-Bold-72" x="341.912109"/>
     <use xlink:href="#DejaVuSans-Bold-74" x="391.228516"/>
     <use xlink:href="#DejaVuSans-Bold-69" x="439.03125"/>
     <use xlink:href="#DejaVuSans-Bold-63" x="473.308594"/>
     <use xlink:href="#DejaVuSans-Bold-61" x="532.585938"/>
     <use xlink:href="#DejaVuSans-Bold-6c" x="600.066406"/>
     <use xlink:href="#DejaVuSans-Bold-22" x="634.34375"/>
     <use xlink:href="#DejaVuSans-Bold-20" x="686.443359"/>
    </g>
    <!--  prediction  -->
    <g style="fill: #1f77b4" transform="translate(268.272 244.100575)scale(0.15 -0.15)">
     <defs>
      <path id="DejaVuSans-Bold-70" d="M 1656 506 
L 1656 -1331 
L 538 -1331 
L 538 3500 
L 1656 3500 
L 1656 2988 
Q 1888 3294 2169 3439 
Q 2450 3584 2816 3584 
Q 3463 3584 3878 3070 
Q 4294 2556 4294 1747 
Q 4294 938 3878 423 
Q 3463 -91 2816 -91 
Q 2450 -91 2169 54 
Q 1888 200 1656 506 
z
M 2400 2772 
Q 2041 2772 1848 2508 
Q 1656 2244 1656 1747 
Q 1656 1250 1848 986 
Q 2041 722 2400 722 
Q 2759 722 2948 984 
Q 3138 1247 3138 1747 
Q 3138 2247 2948 2509 
Q 2759 2772 2400 2772 
z
" transform="scale(0.015625)"/>
      <path id="DejaVuSans-Bold-64" d="M 2919 2988 
L 2919 4863 
L 4044 4863 
L 4044 0 
L 2919 0 
L 2919 506 
Q 2688 197 2409 53 
Q 2131 -91 1766 -91 
Q 1119 -91 703 423 
Q 288 938 288 1747 
Q 288 2556 703 3070 
Q 1119 3584 1766 3584 
Q 2128 3584 2408 3439 
Q 2688 3294 2919 2988 
z
M 2181 722 
Q 2541 722 2730 984 
Q 2919 1247 2919 1747 
Q 2919 2247 2730 2509 
Q 2541 2772 2181 2772 
Q 1825 2772 1636 2509 
Q 1447 2247 1447 1747 
Q 1447 1247 1636 984 
Q 1825 722 2181 722 
z
" transform="scale(0.015625)"/>
      <path id="DejaVuSans-Bold-6f" d="M 2203 2784 
Q 1831 2784 1636 2517 
Q 1441 2250 1441 1747 
Q 1441 1244 1636 976 
Q 1831 709 2203 709 
Q 2569 709 2762 976 
Q 2956 1244 2956 1747 
Q 2956 2250 2762 2517 
Q 2569 2784 2203 2784 
z
M 2203 3584 
Q 3106 3584 3614 3096 
Q 4122 2609 4122 1747 
Q 4122 884 3614 396 
Q 3106 -91 2203 -91 
Q 1297 -91 786 396 
Q 275 884 275 1747 
Q 275 2609 786 3096 
Q 1297 3584 2203 3584 
z
" transform="scale(0.015625)"/>
     </defs>
     <use xlink:href="#DejaVuSans-Bold-20"/>
     <use xlink:href="#DejaVuSans-Bold-70" x="34.814453"/>
     <use xlink:href="#DejaVuSans-Bold-72" x="106.396484"/>
     <use xlink:href="#DejaVuSans-Bold-65" x="155.712891"/>
     <use xlink:href="#DejaVuSans-Bold-64" x="223.535156"/>
     <use xlink:href="#DejaVuSans-Bold-69" x="295.117188"/>
     <use xlink:href="#DejaVuSans-Bold-63" x="329.394531"/>
     <use xlink:href="#DejaVuSans-Bold-74" x="388.671875"/>
     <use xlink:href="#DejaVuSans-Bold-69" x="436.474609"/>
     <use xlink:href="#DejaVuSans-Bold-6f" x="470.751953"/>
     <use xlink:href="#DejaVuSans-Bold-6e" x="539.453125"/>
     <use xlink:href="#DejaVuSans-Bold-20" x="610.644531"/>
    </g>
    <!--  of energy, -->
    <g style="fill: #1f77b4" transform="translate(268.272 260.897294)scale(0.15 -0.15)">
     <defs>
      <path id="DejaVuSans-Bold-79" d="M 78 3500 
L 1197 3500 
L 2138 1125 
L 2938 3500 
L 4056 3500 
L 2584 -331 
Q 2363 -916 2067 -1148 
Q 1772 -1381 1288 -1381 
L 641 -1381 
L 641 -647 
L 991 -647 
Q 1275 -647 1404 -556 
Q 1534 -466 1606 -231 
L 1638 -134 
L 78 3500 
z
" transform="scale(0.015625)"/>
      <path id="DejaVuSans-Bold-2c" d="M 653 1209 
L 1778 1209 
L 1778 256 
L 1006 -909 
L 341 -909 
L 653 256 
L 653 1209 
z
" transform="scale(0.015625)"/>
     </defs>
     <use xlink:href="#DejaVuSans-Bold-20"/>
     <use xlink:href="#DejaVuSans-Bold-6f" x="34.814453"/>
     <use xlink:href="#DejaVuSans-Bold-66" x="103.515625"/>
     <use xlink:href="#DejaVuSans-Bold-20" x="147.021484"/>
     <use xlink:href="#DejaVuSans-Bold-65" x="181.835938"/>
     <use xlink:href="#DejaVuSans-Bold-6e" x="249.658203"/>
     <use xlink:href="#DejaVuSans-Bold-65" x="320.849609"/>
     <use xlink:href="#DejaVuSans-Bold-72" x="388.671875"/>
     <use xlink:href="#DejaVuSans-Bold-67" x="437.988281"/>
     <use xlink:href="#DejaVuSans-Bold-79" x="509.570312"/>
     <use xlink:href="#DejaVuSans-Bold-2c" x="567.005859"/>
    </g>
    <!--  gradient and  -->
    <g style="fill: #1f77b4" transform="translate(268.272 277.8112)scale(0.15 -0.15)">
     <use xlink:href="#DejaVuSans-Bold-20"/>
     <use xlink:href="#DejaVuSans-Bold-67" x="34.814453"/>
     <use xlink:href="#DejaVuSans-Bold-72" x="106.396484"/>
     <use xlink:href="#DejaVuSans-Bold-61" x="155.712891"/>
     <use xlink:href="#DejaVuSans-Bold-64" x="223.193359"/>
     <use xlink:href="#DejaVuSans-Bold-69" x="294.775391"/>
     <use xlink:href="#DejaVuSans-Bold-65" x="329.052734"/>
     <use xlink:href="#DejaVuSans-Bold-6e" x="396.875"/>
     <use xlink:href="#DejaVuSans-Bold-74" x="468.066406"/>
     <use xlink:href="#DejaVuSans-Bold-20" x="515.869141"/>
     <use xlink:href="#DejaVuSans-Bold-61" x="550.683594"/>
     <use xlink:href="#DejaVuSans-Bold-6e" x="618.164062"/>
     <use xlink:href="#DejaVuSans-Bold-64" x="689.355469"/>
     <use xlink:href="#DejaVuSans-Bold-20" x="760.9375"/>
    </g>
    <!--  Hessian -->
    <g style="fill: #1f77b4" transform="translate(268.272 294.725106)scale(0.15 -0.15)">
     <defs>
      <path id="DejaVuSans-Bold-48" d="M 588 4666 
L 1791 4666 
L 1791 2888 
L 3566 2888 
L 3566 4666 
L 4769 4666 
L 4769 0 
L 3566 0 
L 3566 1978 
L 1791 1978 
L 1791 0 
L 588 0 
L 588 4666 
z
" transform="scale(0.015625)"/>
      <path id="DejaVuSans-Bold-73" d="M 3272 3391 
L 3272 2541 
Q 2913 2691 2578 2766 
Q 2244 2841 1947 2841 
Q 1628 2841 1473 2761 
Q 1319 2681 1319 2516 
Q 1319 2381 1436 2309 
Q 1553 2238 1856 2203 
L 2053 2175 
Q 2913 2066 3209 1816 
Q 3506 1566 3506 1031 
Q 3506 472 3093 190 
Q 2681 -91 1863 -91 
Q 1516 -91 1145 -36 
Q 775 19 384 128 
L 384 978 
Q 719 816 1070 734 
Q 1422 653 1784 653 
Q 2113 653 2278 743 
Q 2444 834 2444 1013 
Q 2444 1163 2330 1236 
Q 2216 1309 1875 1350 
L 1678 1375 
Q 931 1469 631 1722 
Q 331 1975 331 2491 
Q 331 3047 712 3315 
Q 1094 3584 1881 3584 
Q 2191 3584 2531 3537 
Q 2872 3491 3272 3391 
z
" transform="scale(0.015625)"/>
     </defs>
     <use xlink:href="#DejaVuSans-Bold-20"/>
     <use xlink:href="#DejaVuSans-Bold-48" x="34.814453"/>
     <use xlink:href="#DejaVuSans-Bold-65" x="118.505859"/>
     <use xlink:href="#DejaVuSans-Bold-73" x="186.328125"/>
     <use xlink:href="#DejaVuSans-Bold-73" x="245.849609"/>
     <use xlink:href="#DejaVuSans-Bold-69" x="305.371094"/>
     <use xlink:href="#DejaVuSans-Bold-61" x="339.648438"/>
     <use xlink:href="#DejaVuSans-Bold-6e" x="407.128906"/>
    </g>
   </g>
   <g id="text_6">
    <!-- 2) Interpolation to -->
    <g transform="translate(187.92 87.642307)scale(0.15 -0.15)">
     <defs>
      <path id="DejaVuSans-Bold-32" d="M 1844 884 
L 3897 884 
L 3897 0 
L 506 0 
L 506 884 
L 2209 2388 
Q 2438 2594 2547 2791 
Q 2656 2988 2656 3200 
Q 2656 3528 2436 3728 
Q 2216 3928 1850 3928 
Q 1569 3928 1234 3808 
Q 900 3688 519 3450 
L 519 4475 
Q 925 4609 1322 4679 
Q 1719 4750 2100 4750 
Q 2938 4750 3402 4381 
Q 3866 4013 3866 3353 
Q 3866 2972 3669 2642 
Q 3472 2313 2841 1759 
L 1844 884 
z
" transform="scale(0.015625)"/>
      <path id="DejaVuSans-Bold-49" d="M 588 4666 
L 1791 4666 
L 1791 0 
L 588 0 
L 588 4666 
z
" transform="scale(0.015625)"/>
     </defs>
     <use xlink:href="#DejaVuSans-Bold-32"/>
     <use xlink:href="#DejaVuSans-Bold-29" x="69.580078"/>
     <use xlink:href="#DejaVuSans-Bold-20" x="115.283203"/>
     <use xlink:href="#DejaVuSans-Bold-49" x="150.097656"/>
     <use xlink:href="#DejaVuSans-Bold-6e" x="187.304688"/>
     <use xlink:href="#DejaVuSans-Bold-74" x="258.496094"/>
     <use xlink:href="#DejaVuSans-Bold-65" x="306.298828"/>
     <use xlink:href="#DejaVuSans-Bold-72" x="374.121094"/>
     <use xlink:href="#DejaVuSans-Bold-70" x="423.4375"/>
     <use xlink:href="#DejaVuSans-Bold-6f" x="495.019531"/>
     <use xlink:href="#DejaVuSans-Bold-6c" x="563.720703"/>
     <use xlink:href="#DejaVuSans-Bold-61" x="597.998047"/>
     <use xlink:href="#DejaVuSans-Bold-74" x="665.478516"/>
     <use xlink:href="#DejaVuSans-Bold-69" x="713.28125"/>
     <use xlink:href="#DejaVuSans-Bold-6f" x="747.558594"/>
     <use xlink:href="#DejaVuSans-Bold-6e" x="816.259766"/>
     <use xlink:href="#DejaVuSans-Bold-20" x="887.451172"/>
     <use xlink:href="#DejaVuSans-Bold-74" x="922.265625"/>
     <use xlink:href="#DejaVuSans-Bold-6f" x="970.068359"/>
    </g>
    <!--  a Morse potential  -->
    <g transform="translate(187.92 104.439026)scale(0.15 -0.15)">
     <defs>
      <path id="DejaVuSans-Bold-4d" d="M 588 4666 
L 2119 4666 
L 3181 2169 
L 4250 4666 
L 5778 4666 
L 5778 0 
L 4641 0 
L 4641 3413 
L 3566 897 
L 2803 897 
L 1728 3413 
L 1728 0 
L 588 0 
L 588 4666 
z
" transform="scale(0.015625)"/>
     </defs>
     <use xlink:href="#DejaVuSans-Bold-20"/>
     <use xlink:href="#DejaVuSans-Bold-61" x="34.814453"/>
     <use xlink:href="#DejaVuSans-Bold-20" x="102.294922"/>
     <use xlink:href="#DejaVuSans-Bold-4d" x="137.109375"/>
     <use xlink:href="#DejaVuSans-Bold-6f" x="236.621094"/>
     <use xlink:href="#DejaVuSans-Bold-72" x="305.322266"/>
     <use xlink:href="#DejaVuSans-Bold-73" x="354.638672"/>
     <use xlink:href="#DejaVuSans-Bold-65" x="414.160156"/>
     <use xlink:href="#DejaVuSans-Bold-20" x="481.982422"/>
     <use xlink:href="#DejaVuSans-Bold-70" x="516.796875"/>
     <use xlink:href="#DejaVuSans-Bold-6f" x="588.378906"/>
     <use xlink:href="#DejaVuSans-Bold-74" x="657.080078"/>
     <use xlink:href="#DejaVuSans-Bold-65" x="704.882812"/>
     <use xlink:href="#DejaVuSans-Bold-6e" x="772.705078"/>
     <use xlink:href="#DejaVuSans-Bold-74" x="843.896484"/>
     <use xlink:href="#DejaVuSans-Bold-69" x="891.699219"/>
     <use xlink:href="#DejaVuSans-Bold-61" x="925.976562"/>
     <use xlink:href="#DejaVuSans-Bold-6c" x="993.457031"/>
     <use xlink:href="#DejaVuSans-Bold-20" x="1027.734375"/>
    </g>
    <!--  or a parabola  -->
    <g transform="translate(187.92 121.235745)scale(0.15 -0.15)">
     <defs>
      <path id="DejaVuSans-Bold-62" d="M 2400 722 
Q 2759 722 2948 984 
Q 3138 1247 3138 1747 
Q 3138 2247 2948 2509 
Q 2759 2772 2400 2772 
Q 2041 2772 1848 2508 
Q 1656 2244 1656 1747 
Q 1656 1250 1848 986 
Q 2041 722 2400 722 
z
M 1656 2988 
Q 1888 3294 2169 3439 
Q 2450 3584 2816 3584 
Q 3463 3584 3878 3070 
Q 4294 2556 4294 1747 
Q 4294 938 3878 423 
Q 3463 -91 2816 -91 
Q 2450 -91 2169 54 
Q 1888 200 1656 506 
L 1656 0 
L 538 0 
L 538 4863 
L 1656 4863 
L 1656 2988 
z
" transform="scale(0.015625)"/>
     </defs>
     <use xlink:href="#DejaVuSans-Bold-20"/>
     <use xlink:href="#DejaVuSans-Bold-6f" x="34.814453"/>
     <use xlink:href="#DejaVuSans-Bold-72" x="103.515625"/>
     <use xlink:href="#DejaVuSans-Bold-20" x="152.832031"/>
     <use xlink:href="#DejaVuSans-Bold-61" x="187.646484"/>
     <use xlink:href="#DejaVuSans-Bold-20" x="255.126953"/>
     <use xlink:href="#DejaVuSans-Bold-70" x="289.941406"/>
     <use xlink:href="#DejaVuSans-Bold-61" x="361.523438"/>
     <use xlink:href="#DejaVuSans-Bold-72" x="429.003906"/>
     <use xlink:href="#DejaVuSans-Bold-61" x="478.320312"/>
     <use xlink:href="#DejaVuSans-Bold-62" x="545.800781"/>
     <use xlink:href="#DejaVuSans-Bold-6f" x="617.382812"/>
     <use xlink:href="#DejaVuSans-Bold-6c" x="686.083984"/>
     <use xlink:href="#DejaVuSans-Bold-61" x="720.361328"/>
     <use xlink:href="#DejaVuSans-Bold-20" x="787.841797"/>
    </g>
   </g>
   <g id="text_7">
    <!-- 3) Relaxed  -->
    <g style="fill: #ff7f0e" transform="translate(98.64 240.195758)scale(0.15 -0.15)">
     <defs>
      <path id="DejaVuSans-Bold-33" d="M 2981 2516 
Q 3453 2394 3698 2092 
Q 3944 1791 3944 1325 
Q 3944 631 3412 270 
Q 2881 -91 1863 -91 
Q 1503 -91 1142 -33 
Q 781 25 428 141 
L 428 1069 
Q 766 900 1098 814 
Q 1431 728 1753 728 
Q 2231 728 2486 893 
Q 2741 1059 2741 1369 
Q 2741 1688 2480 1852 
Q 2219 2016 1709 2016 
L 1228 2016 
L 1228 2791 
L 1734 2791 
Q 2188 2791 2409 2933 
Q 2631 3075 2631 3366 
Q 2631 3634 2415 3781 
Q 2200 3928 1806 3928 
Q 1516 3928 1219 3862 
Q 922 3797 628 3669 
L 628 4550 
Q 984 4650 1334 4700 
Q 1684 4750 2022 4750 
Q 2931 4750 3382 4451 
Q 3834 4153 3834 3553 
Q 3834 3144 3618 2883 
Q 3403 2622 2981 2516 
z
" transform="scale(0.015625)"/>
      <path id="DejaVuSans-Bold-78" d="M 1422 1791 
L 159 3500 
L 1344 3500 
L 2059 2463 
L 2784 3500 
L 3969 3500 
L 2706 1797 
L 4031 0 
L 2847 0 
L 2059 1106 
L 1281 0 
L 97 0 
L 1422 1791 
z
" transform="scale(0.015625)"/>
     </defs>
     <use xlink:href="#DejaVuSans-Bold-33"/>
     <use xlink:href="#DejaVuSans-Bold-29" x="69.580078"/>
     <use xlink:href="#DejaVuSans-Bold-20" x="115.283203"/>
     <use xlink:href="#DejaVuSans-Bold-52" x="150.097656"/>
     <use xlink:href="#DejaVuSans-Bold-65" x="227.099609"/>
     <use xlink:href="#DejaVuSans-Bold-6c" x="294.921875"/>
     <use xlink:href="#DejaVuSans-Bold-61" x="329.199219"/>
     <use xlink:href="#DejaVuSans-Bold-78" x="396.679688"/>
     <use xlink:href="#DejaVuSans-Bold-65" x="461.181641"/>
     <use xlink:href="#DejaVuSans-Bold-64" x="529.003906"/>
     <use xlink:href="#DejaVuSans-Bold-20" x="600.585938"/>
    </g>
    <!--  energy and  -->
    <g style="fill: #ff7f0e" transform="translate(98.64 256.992477)scale(0.15 -0.15)">
     <use xlink:href="#DejaVuSans-Bold-20"/>
     <use xlink:href="#DejaVuSans-Bold-65" x="34.814453"/>
     <use xlink:href="#DejaVuSans-Bold-6e" x="102.636719"/>
     <use xlink:href="#DejaVuSans-Bold-65" x="173.828125"/>
     <use xlink:href="#DejaVuSans-Bold-72" x="241.650391"/>
     <use xlink:href="#DejaVuSans-Bold-67" x="290.966797"/>
     <use xlink:href="#DejaVuSans-Bold-79" x="362.548828"/>
     <use xlink:href="#DejaVuSans-Bold-20" x="427.734375"/>
     <use xlink:href="#DejaVuSans-Bold-61" x="462.548828"/>
     <use xlink:href="#DejaVuSans-Bold-6e" x="530.029297"/>
     <use xlink:href="#DejaVuSans-Bold-64" x="601.220703"/>
     <use xlink:href="#DejaVuSans-Bold-20" x="672.802734"/>
    </g>
    <!--  geometry  -->
    <g style="fill: #ff7f0e" transform="translate(98.64 273.906383)scale(0.15 -0.15)">
     <defs>
      <path id="DejaVuSans-Bold-6d" d="M 3781 2919 
Q 3994 3244 4286 3414 
Q 4578 3584 4928 3584 
Q 5531 3584 5847 3212 
Q 6163 2841 6163 2131 
L 6163 0 
L 5038 0 
L 5038 1825 
Q 5041 1866 5042 1909 
Q 5044 1953 5044 2034 
Q 5044 2406 4934 2573 
Q 4825 2741 4581 2741 
Q 4263 2741 4089 2478 
Q 3916 2216 3909 1719 
L 3909 0 
L 2784 0 
L 2784 1825 
Q 2784 2406 2684 2573 
Q 2584 2741 2328 2741 
Q 2006 2741 1831 2477 
Q 1656 2213 1656 1722 
L 1656 0 
L 531 0 
L 531 3500 
L 1656 3500 
L 1656 2988 
Q 1863 3284 2130 3434 
Q 2397 3584 2719 3584 
Q 3081 3584 3359 3409 
Q 3638 3234 3781 2919 
z
" transform="scale(0.015625)"/>
     </defs>
     <use xlink:href="#DejaVuSans-Bold-20"/>
     <use xlink:href="#DejaVuSans-Bold-67" x="34.814453"/>
     <use xlink:href="#DejaVuSans-Bold-65" x="106.396484"/>
     <use xlink:href="#DejaVuSans-Bold-6f" x="174.21875"/>
     <use xlink:href="#DejaVuSans-Bold-6d" x="242.919922"/>
     <use xlink:href="#DejaVuSans-Bold-65" x="347.119141"/>
     <use xlink:href="#DejaVuSans-Bold-74" x="414.941406"/>
     <use xlink:href="#DejaVuSans-Bold-72" x="462.744141"/>
     <use xlink:href="#DejaVuSans-Bold-79" x="512.060547"/>
     <use xlink:href="#DejaVuSans-Bold-20" x="577.246094"/>
    </g>
   </g>
  </g>
 </g>
 <defs>
  <clipPath id="pe8c2e61675">
   <rect x="54" y="51.84" width="334.8" height="326.16"/>
  </clipPath>
 </defs>
</svg>
